<svg width="46.000000" height="34.000000" viewBox="0 0 46 34" fill="none" xmlns="http://www.w3.org/2000/svg" xmlns:xlink="http://www.w3.org/1999/xlink">
	<desc>
			Created with Pixso.
	</desc>
	<defs>
		<filter id="filter_51_14_dd" x="0.000000" y="0.000000" width="46.000000" height="34.000000" filterUnits="userSpaceOnUse" color-interpolation-filters="sRGB">
			<feFlood flood-opacity="0" result="BackgroundImageFix"/>
			<feColorMatrix in="SourceAlpha" type="matrix" values="0 0 0 0 0 0 0 0 0 0 0 0 0 0 0 0 0 0 127 0" result="hardAlpha"/>
			<feOffset dx="0" dy="4"/>
			<feGaussianBlur stdDeviation="1.33333"/>
			<feComposite in2="hardAlpha" operator="out" k2="-1" k3="1"/>
			<feColorMatrix type="matrix" values="0 0 0 0 0 0 0 0 0 0 0 0 0 0 0 0 0 0 0.25 0"/>
			<feBlend mode="normal" in2="BackgroundImageFix" result="effect_dropShadow_1"/>
			<feBlend mode="normal" in="SourceGraphic" in2="effect_dropShadow_1" result="shape"/>
		</filter>
	</defs>
	<g filter="url(#filter_51_14_dd)">
		<path id="Vector" d="M27.81 11.93L27.81 0L38.63 0C39.59 0 40.39 0.32 41.03 0.98C41.68 1.63 42 2.45 42 3.43L42 11.93L27.81 11.93ZM7.36 26C6.4 26 5.6 25.67 4.96 25.01C4.31 24.36 3.99 23.54 4 22.56L4 3.43C4 2.45 4.32 1.63 4.96 0.98C5.6 0.32 6.4 -0.01 7.36 0L25.72 0L25.72 26L7.36 26ZM27.81 26L27.81 14.06L42 14.06L42 22.56C42 23.54 41.67 24.36 41.03 25.01C40.39 25.67 39.59 26 38.63 26L27.81 26Z" fill="#000000" fill-opacity="1.000000" fill-rule="nonzero"/>
	</g>
</svg>
