<?xml version="1.0" encoding="utf-8"?><svg viewBox="0 0 345 231.192" xmlns="http://www.w3.org/2000/svg" xmlns:xlink="http://www.w3.org/1999/xlink"><style>:root>svg{display:none}:root>svg:target{display:block}</style><svg fill="none" viewBox="0 0 19.973 19.69" id="svg--arrow-left" xmlns="http://www.w3.org/2000/svg"><path d="M6.58 0 0 10.64l.22 1.3 9.83 7.74.93-1.5-8.15-6.42 17.14-3.03-.33-1.83L2.51 9.92l5.46-8.83L6.58 0Z" fill="#000" fill-rule="evenodd"/></svg><svg fill="none" viewBox="0 0 19.973 19.69" id="svg--arrow-left-white" xmlns="http://www.w3.org/2000/svg"><rect width="100%" height="100%"/><g class="acurrentLayer"><path d="M6.58 0 0 10.64l.22 1.3 9.83 7.74.93-1.5-8.15-6.42 17.14-3.03-.33-1.83L2.51 9.92 7.725.845 6.58 0z" fill="#fff" fill-rule="evenodd"/></g></svg><svg fill="none" viewBox="0 0 23.169 23.161" id="svg--arrow-rigth" xmlns="http://www.w3.org/2000/svg"><path fill="none" d="M19.696 23.161 23.17 3.472 3.473.001 0 19.69z"/><path d="m14.96 2.02 6.58 10.64-.23 1.3-9.83 7.75-.93-1.5 8.15-6.43-17.13-3.02.32-1.84 17.14 3.02-5.46-8.82 1.39-1.1Z" fill="#000" fill-rule="evenodd"/></svg><svg fill="none" viewBox="0 0 23.169 23.161" id="svg--arrow-rigth-white" xmlns="http://www.w3.org/2000/svg"><rect width="100%" height="100%"/><g class="ccurrentLayer"><path fill="none" d="M19.696 23.161 23.17 3.472 3.473.001 0 19.69z"/><path d="m14.96 2.02 6.58 10.64-.23 1.3-9.83 7.75-.93-1.5 8.15-6.43-17.13-3.02.32-1.84 17.14 3.02-5.46-8.82 1.39-1.1Z" fill="#fff" fill-rule="evenodd" class="cselected"/></g></svg><svg fill="none" viewBox="0 0 183 231.192" id="svg--gallery-1" xmlns="http://www.w3.org/2000/svg"><path d="m163.86 49.84-123-47.78C21.19-5.58 0 8.93 0 30.02v171.17c0 16.57 13.43 30 30 30h123c16.56 0 30-13.43 30-30V77.8c0-12.38-7.61-23.48-19.14-27.96Z" fill="#3C342E"/></svg><svg fill="none" viewBox="0 0 183 231.192" id="svg--gallery-2" xmlns="http://www.w3.org/2000/svg"><path d="m19.13 181.35 123 47.77c19.67 7.64 40.87-6.87 40.87-27.96V30c0-16.57-13.44-30-30-30H30C13.43 0 0 13.43 0 30v123.38c0 12.38 7.6 23.49 19.13 27.97Z" fill="#3C342E" fill-rule="evenodd"/></svg><svg fill="none" viewBox="0 0 183 231.192" id="svg--gallery-3" xmlns="http://www.w3.org/2000/svg"><path d="m19.13 181.35 123 47.77c19.67 7.64 40.87-6.87 40.87-27.96V30c0-16.57-13.44-30-30-30H30C13.43 0 0 13.43 0 30v123.38c0 12.38 7.6 23.49 19.13 27.97Z" fill="#3C342E"/></svg><svg fill="none" viewBox="0 0 184 119" id="svg--gallery-4" xmlns="http://www.w3.org/2000/svg"><rect rx="30" width="184" height="119" fill="#3C342E"/></svg><svg fill="none" viewBox="0 0 345 44" id="svg--logo" xmlns="http://www.w3.org/2000/svg"><defs><clipPath id="ja"><path fill="#fff" fill-opacity="0" d="M0 0h345v44H0z"/></clipPath></defs><path fill="none" d="M0 0h345v44H0z"/><g clip-path="url(#ja)" fill="#FFF"><path d="M57.67 35.12H50l8.64-26.18h9.71L77 35.12h-7.68L63.6 16.15h-.21l-5.72 18.97Zm-1.44-10.33h14.42v5.32H56.23v-5.32Zm31.25 10.69c-2.1 0-3.9-.4-5.42-1.2a8.422 8.422 0 0 1-3.49-3.48c-.81-1.52-1.21-3.33-1.21-5.45 0-2.03.41-3.8 1.22-5.32a8.886 8.886 0 0 1 3.47-3.54c1.49-.84 3.25-1.26 5.28-1.26 1.48 0 2.82.23 4.02.69 1.21.46 2.23 1.13 3.09 2.01.85.86 1.5 1.92 1.96 3.17.46 1.24.69 2.64.69 4.2v1.64H79.56v-3.89H90.6c-.01-.56-.15-1.05-.43-1.48-.28-.44-.65-.77-1.12-1.01-.46-.25-.98-.37-1.57-.37-.57 0-1.09.12-1.57.37-.48.24-.86.57-1.15 1-.28.42-.43.92-.45 1.49v4.2c0 .63.13 1.19.4 1.68.26.5.64.88 1.13 1.17.5.28 1.1.42 1.79.42.49 0 .93-.07 1.33-.21.41-.13.76-.33 1.05-.58.29-.27.51-.58.64-.95h6.44c-.22 1.36-.74 2.55-1.57 3.55-.82 1-1.92 1.78-3.28 2.33-1.36.55-2.94.82-4.76.82Zm30.44-13.6h-6.49c-.03-.4-.18-.75-.42-1.04a2.36 2.36 0 0 0-.96-.66c-.38-.17-.81-.25-1.28-.25-.6 0-1.12.11-1.56.33-.43.23-.65.54-.64.95-.01.29.12.56.37.81.27.24.77.44 1.52.57l3.99.72c2.01.36 3.51.98 4.49 1.85.99.86 1.49 2.02 1.5 3.47-.01 1.39-.43 2.61-1.26 3.64-.82 1.02-1.94 1.81-3.36 2.38-1.41.55-3.03.83-4.84.83-3 0-5.35-.62-7.05-1.84-1.69-1.23-2.63-2.85-2.82-4.86h7c.1.62.4 1.1.92 1.44.53.34 1.2.5 2 .5.64 0 1.18-.11 1.59-.33.43-.22.65-.54.66-.95-.01-.37-.2-.67-.57-.89-.35-.22-.92-.4-1.68-.54l-3.48-.61c-2-.35-3.5-1.02-4.5-2s-1.49-2.24-1.48-3.78c-.01-1.36.34-2.52 1.07-3.46.73-.96 1.78-1.68 3.13-2.18 1.37-.5 2.98-.75 4.85-.75 2.84 0 5.07.59 6.71 1.76 1.64 1.18 2.51 2.81 2.59 4.89Zm14.93-6.4v5.12h-12.94v-5.12h12.94Zm-10.43-4.7h7.05V28.8c0 .28.05.51.15.7.09.17.23.31.43.4.2.09.45.13.75.13.22 0 .46-.02.75-.07.29-.06.5-.1.63-.13l1.03 4.96c-.32.09-.77.21-1.36.34-.58.14-1.27.23-2.07.27-1.62.09-2.98-.08-4.08-.5s-1.92-1.09-2.48-2c-.55-.92-.82-2.06-.8-3.43V10.78Zm20.79 13.29v11.05h-7.06V8.94h6.8v10.28h.21c.44-1.26 1.18-2.23 2.21-2.93 1.03-.71 2.27-1.06 3.72-1.06 1.39 0 2.59.31 3.62.94 1.03.63 1.82 1.5 2.39 2.61.57 1.11.85 2.38.84 3.81v12.53h-7.06V24.07c.01-.97-.23-1.73-.72-2.28-.49-.56-1.19-.83-2.09-.83-.57 0-1.07.12-1.51.38-.42.25-.76.6-.99 1.07-.23.46-.35 1.02-.36 1.66Zm25.62 11.41c-2.09 0-3.9-.4-5.42-1.2a8.422 8.422 0 0 1-3.49-3.48c-.81-1.52-1.21-3.33-1.21-5.45 0-2.03.41-3.8 1.23-5.32a8.797 8.797 0 0 1 3.46-3.54c1.49-.84 3.25-1.26 5.28-1.26 1.48 0 2.83.23 4.03.69 1.2.46 2.23 1.13 3.08 2.01.85.86 1.51 1.92 1.97 3.17.46 1.24.69 2.64.69 4.2v1.64h-17.54v-3.89h11.04c-.01-.56-.15-1.05-.43-1.48-.27-.44-.65-.77-1.11-1.01-.46-.25-.99-.37-1.58-.37-.57 0-1.09.12-1.57.37-.48.24-.86.57-1.15 1-.28.42-.43.92-.45 1.49v4.2c0 .63.14 1.19.4 1.68.26.5.64.88 1.14 1.17.49.28 1.09.42 1.79.42.48 0 .93-.07 1.33-.21.41-.13.75-.33 1.04-.58.29-.27.51-.58.64-.95h6.45c-.22 1.36-.75 2.55-1.58 3.55-.82 1-1.92 1.78-3.28 2.33-1.36.55-2.94.82-4.76.82Zm24.21-20v5.12H180.1v-5.12h12.94Zm-10.43-4.7h7.05V28.8c0 .28.05.51.14.7.1.17.24.31.44.4.19.09.44.13.75.13.21 0 .46-.02.74-.07.29-.06.51-.1.64-.13l1.02 4.96c-.31.09-.76.21-1.35.34-.58.14-1.27.23-2.07.27-1.62.09-2.98-.08-4.08-.5s-1.93-1.09-2.48-2c-.55-.92-.82-2.06-.8-3.43V10.78Zm13.31 24.34V15.48h7.05v19.64h-7.05Zm3.52-21.68c-.95 0-1.77-.32-2.45-.95-.68-.63-1.02-1.39-1.02-2.27 0-.89.34-1.65 1.02-2.28.68-.63 1.5-.94 2.45-.94.97 0 1.79.31 2.46.94.68.63 1.02 1.39 1.02 2.28 0 .88-.34 1.64-1.02 2.27-.67.63-1.49.95-2.46.95Zm16.59 22.04c-2.13 0-3.96-.42-5.47-1.27a8.647 8.647 0 0 1-3.49-3.55c-.81-1.53-1.22-3.3-1.22-5.31s.41-3.77 1.22-5.29a8.53 8.53 0 0 1 3.49-3.55c1.51-.86 3.34-1.28 5.47-1.28 1.93 0 3.59.35 5 1.05 1.41.69 2.51 1.67 3.28 2.94.78 1.26 1.17 2.74 1.18 4.45h-6.55c-.09-1.04-.39-1.82-.89-2.36-.5-.54-1.13-.81-1.92-.81-.61 0-1.15.17-1.61.53-.46.35-.82.88-1.07 1.6-.26.71-.39 1.6-.39 2.67 0 1.08.13 1.97.39 2.69.25.7.61 1.24 1.07 1.59.46.35 1 .53 1.61.53.52 0 .98-.12 1.38-.36.4-.25.73-.6.97-1.07.26-.48.41-1.06.46-1.74h6.55c-.03 1.73-.42 3.24-1.19 4.52-.77 1.28-1.85 2.27-3.26 2.97-1.4.7-3.07 1.05-5.01 1.05Zm33.55-18.36c-.06-.85-.38-1.52-.95-1.99-.57-.48-1.42-.72-2.57-.72-.74 0-1.34.09-1.81.27-.46.17-.8.4-1.02.7-.22.3-.34.64-.34 1.02-.02.32.03.6.16.86.14.25.35.47.64.68.29.19.66.37 1.11.54.45.16.99.3 1.61.43l2.15.46c1.45.31 2.69.71 3.72 1.21 1.03.51 1.88 1.1 2.53 1.78.66.67 1.14 1.43 1.45 2.28.31.84.47 1.76.48 2.76-.01 1.72-.44 3.18-1.29 4.37-.85 1.19-2.07 2.1-3.65 2.72-1.58.63-3.48.94-5.69.94-2.28 0-4.26-.34-5.96-1.01-1.69-.68-3-1.71-3.94-3.11-.93-1.41-1.4-3.2-1.4-5.39h6.75c.04.8.24 1.47.6 2.02.35.54.86.95 1.51 1.24.65.28 1.43.42 2.33.42.76 0 1.4-.1 1.91-.28.51-.19.9-.45 1.16-.78.27-.34.4-.72.41-1.14-.01-.4-.14-.75-.39-1.05-.25-.31-.66-.58-1.23-.82-.57-.25-1.34-.48-2.32-.69l-2.6-.56c-2.32-.5-4.15-1.34-5.49-2.52-1.33-1.18-1.99-2.8-1.98-4.84-.01-1.67.44-3.12 1.33-4.36.9-1.26 2.15-2.23 3.75-2.93 1.6-.7 3.43-1.05 5.51-1.05 2.11 0 3.94.35 5.48 1.06 1.54.71 2.73 1.71 3.57 2.99.84 1.28 1.27 2.78 1.28 4.49h-6.81Zm9.97 25.36v-27h7v3.43h.16c.25-.66.63-1.27 1.12-1.83.5-.56 1.11-1.01 1.84-1.34.74-.34 1.59-.51 2.56-.51 1.3 0 2.53.34 3.7 1.03 1.17.69 2.13 1.78 2.86 3.26.74 1.49 1.11 3.41 1.11 5.78 0 2.27-.35 4.15-1.06 5.64-.7 1.49-1.64 2.6-2.81 3.34-1.17.73-2.45 1.1-3.85 1.1-.92 0-1.74-.15-2.47-.45-.71-.31-1.33-.72-1.84-1.24a5.8 5.8 0 0 1-1.16-1.79h-.1v10.58h-7.06Zm6.9-17.18c0 .96.13 1.78.37 2.48.26.69.62 1.23 1.08 1.61.47.38 1.02.57 1.67.57.65 0 1.2-.19 1.65-.55.46-.38.81-.91 1.05-1.6.25-.7.37-1.54.37-2.51 0-.97-.12-1.8-.37-2.49-.24-.7-.59-1.23-1.05-1.6-.45-.37-1-.56-1.65-.56-.65 0-1.2.19-1.67.56-.46.37-.82.9-1.08 1.6-.24.69-.37 1.52-.37 2.49Zm21.88 10.13c-1.25 0-2.36-.21-3.32-.62a4.914 4.914 0 0 1-2.25-1.89c-.55-.84-.82-1.92-.82-3.22 0-1.07.18-1.99.55-2.75.36-.77.88-1.39 1.53-1.88.66-.48 1.42-.85 2.29-1.11.88-.26 1.82-.42 2.84-.5 1.1-.08 1.98-.19 2.64-.31.68-.12 1.16-.3 1.46-.52.3-.23.45-.53.45-.91v-.05c0-.51-.2-.9-.59-1.17-.39-.28-.89-.41-1.51-.41-.67 0-1.22.15-1.65.44-.41.29-.67.74-.75 1.35h-6.5c.09-1.2.47-2.3 1.14-3.3.68-1.02 1.68-1.83 2.98-2.43 1.3-.62 2.93-.92 4.88-.92 1.41 0 2.67.16 3.79.5 1.11.32 2.07.78 2.85 1.36.78.58 1.38 1.27 1.79 2.05.42.78.63 1.62.63 2.53v13.45h-6.6v-2.76h-.15c-.4.73-.87 1.32-1.44 1.78-.55.45-1.19.78-1.9.98-.71.2-1.49.31-2.34.31Zm2.3-4.45c.54 0 1.04-.11 1.51-.33.48-.23.86-.55 1.16-.96.3-.42.45-.93.45-1.52v-1.64c-.19.08-.39.15-.6.22-.21.06-.43.13-.67.19-.23.06-.47.11-.74.16-.25.06-.52.1-.8.15-.55.08-1 .22-1.34.42-.35.18-.6.42-.77.7-.16.27-.24.58-.24.92 0 .55.19.96.57 1.25.38.29.87.44 1.47.44Zm22.96 4.5c-2.13 0-3.96-.42-5.47-1.27a8.647 8.647 0 0 1-3.49-3.55c-.81-1.53-1.22-3.3-1.22-5.31s.41-3.77 1.22-5.29a8.53 8.53 0 0 1 3.49-3.55c1.51-.86 3.34-1.28 5.47-1.28 1.92 0 3.59.35 5 1.05 1.41.69 2.51 1.67 3.28 2.94.78 1.26 1.17 2.74 1.18 4.45h-6.55c-.09-1.04-.39-1.82-.89-2.36-.5-.54-1.14-.81-1.92-.81-.61 0-1.15.17-1.61.53-.46.35-.82.88-1.07 1.6-.26.71-.39 1.6-.39 2.67 0 1.08.13 1.97.39 2.69.25.7.61 1.24 1.07 1.59.46.35 1 .53 1.61.53.52 0 .98-.12 1.38-.36.4-.25.72-.6.97-1.07.26-.48.41-1.06.46-1.74h6.55c-.03 1.73-.42 3.24-1.19 4.52-.77 1.28-1.85 2.27-3.26 2.97-1.4.7-3.07 1.05-5.01 1.05Zm21.78 0c-2.1 0-3.9-.4-5.42-1.2a8.422 8.422 0 0 1-3.49-3.48c-.81-1.52-1.22-3.33-1.22-5.45 0-2.03.41-3.8 1.23-5.32a8.821 8.821 0 0 1 3.47-3.54c1.49-.84 3.25-1.26 5.28-1.26 1.48 0 2.82.23 4.02.69 1.2.46 2.23 1.13 3.08 2.01.86.86 1.51 1.92 1.97 3.17.46 1.24.69 2.64.69 4.2v1.64h-17.54v-3.89h11.05a2.74 2.74 0 0 0-.44-1.48 2.71 2.71 0 0 0-1.11-1.01c-.46-.25-.98-.37-1.57-.37-.57 0-1.1.12-1.57.37-.48.24-.86.57-1.15 1-.29.42-.43.92-.45 1.49v4.2c0 .63.13 1.19.39 1.68.27.5.65.88 1.14 1.17.5.28 1.09.42 1.79.42.49 0 .93-.07 1.33-.21.41-.13.76-.33 1.05-.58.29-.27.5-.58.64-.95h6.44c-.22 1.36-.74 2.55-1.57 3.55-.83 1-1.92 1.78-3.29 2.33-1.35.55-2.94.82-4.75.82ZM23.81 20.93V9h10.82c.96 0 1.76.32 2.4.98.65.65.97 1.47.97 2.45v8.5H23.81ZM3.36 35c-.96 0-1.76-.33-2.4-.99-.65-.65-.97-1.47-.96-2.45V12.43c0-.98.32-1.8.96-2.45.64-.66 1.44-.99 2.4-.98h18.36v26H3.36Zm20.45 0V23.06H38v8.5c0 .98-.33 1.8-.97 2.45-.64.66-1.44.99-2.4.99H23.81Z"/></g></svg><svg fill="none" viewBox="0 0 345 44" id="svg--logo-black" xmlns="http://www.w3.org/2000/svg"><defs><clipPath id="ia"><path fill="#fff" fill-opacity="0" d="M0 0h345v44H0z"/></clipPath></defs><path fill="none" d="M0 0h345v44H0z"/><g clip-path="url(#ia)" fill="#000"><path d="M57.67 35.12H50l8.64-26.18h9.71L77 35.12h-7.68L63.6 16.15h-.21l-5.72 18.97Zm-1.44-10.33h14.42v5.32H56.23v-5.32Zm31.25 10.69c-2.1 0-3.9-.4-5.42-1.2a8.422 8.422 0 0 1-3.49-3.48c-.81-1.52-1.21-3.33-1.21-5.45 0-2.03.41-3.8 1.22-5.32a8.886 8.886 0 0 1 3.47-3.54c1.49-.84 3.25-1.26 5.28-1.26 1.48 0 2.82.23 4.02.69 1.21.46 2.23 1.13 3.09 2.01.85.86 1.5 1.92 1.96 3.17.46 1.24.69 2.64.69 4.2v1.64H79.56v-3.89H90.6c-.01-.56-.15-1.05-.43-1.48-.28-.44-.65-.77-1.12-1.01-.46-.25-.98-.37-1.57-.37-.57 0-1.09.12-1.57.37-.48.24-.86.57-1.15 1-.28.42-.43.92-.45 1.49v4.2c0 .63.13 1.19.4 1.68.26.5.64.88 1.13 1.17.5.28 1.1.42 1.79.42.49 0 .93-.07 1.33-.21.41-.13.76-.33 1.05-.58.29-.27.51-.58.64-.95h6.44c-.22 1.36-.74 2.55-1.57 3.55-.82 1-1.92 1.78-3.28 2.33-1.36.55-2.94.82-4.76.82Zm30.44-13.6h-6.49c-.03-.4-.18-.75-.42-1.04a2.36 2.36 0 0 0-.96-.66c-.38-.17-.81-.25-1.28-.25-.6 0-1.12.11-1.56.34-.43.22-.65.53-.64.94-.01.29.12.56.37.81.27.24.77.44 1.52.57l3.99.72c2.01.36 3.51.98 4.49 1.85.99.86 1.49 2.02 1.5 3.47-.01 1.39-.43 2.61-1.26 3.64-.82 1.02-1.94 1.81-3.36 2.38-1.41.55-3.03.83-4.84.83-3 0-5.35-.62-7.05-1.84-1.69-1.23-2.63-2.85-2.82-4.86h7c.1.62.4 1.1.92 1.44.53.34 1.2.5 2 .5.64 0 1.18-.11 1.59-.33.43-.22.65-.54.66-.95-.01-.37-.2-.67-.57-.89-.35-.22-.92-.4-1.68-.54l-3.48-.61c-2-.35-3.5-1.02-4.5-2s-1.49-2.24-1.48-3.78c-.01-1.36.34-2.52 1.07-3.46.73-.96 1.78-1.68 3.13-2.18 1.37-.5 2.98-.75 4.85-.75 2.84 0 5.07.59 6.71 1.76 1.64 1.18 2.51 2.81 2.59 4.89Zm14.93-6.4v5.12h-12.94v-5.12h12.94Zm-10.43-4.7h7.05V28.8c0 .28.05.51.15.7.09.17.23.31.43.4.2.09.45.13.75.13.22 0 .46-.02.75-.07.29-.06.5-.1.63-.13l1.03 4.96c-.32.09-.77.21-1.36.34-.58.14-1.27.23-2.07.27-1.62.09-2.98-.08-4.08-.5s-1.92-1.09-2.48-2c-.55-.92-.82-2.06-.8-3.43V10.78Zm20.79 13.29v11.05h-7.06V8.94h6.8v10.28h.21c.44-1.26 1.18-2.23 2.21-2.93 1.03-.71 2.27-1.06 3.72-1.06 1.39 0 2.59.31 3.62.94 1.03.63 1.82 1.5 2.39 2.61.57 1.11.85 2.38.84 3.81v12.53h-7.06V24.07c.01-.97-.23-1.73-.72-2.28-.49-.56-1.19-.83-2.09-.83-.57 0-1.07.12-1.51.38-.42.25-.76.6-.99 1.07-.23.46-.35 1.02-.36 1.66Zm25.62 11.41c-2.09 0-3.9-.4-5.42-1.2a8.422 8.422 0 0 1-3.49-3.48c-.81-1.52-1.21-3.33-1.21-5.45 0-2.03.41-3.8 1.23-5.32a8.797 8.797 0 0 1 3.46-3.54c1.49-.84 3.25-1.26 5.28-1.26 1.48 0 2.83.23 4.03.69 1.2.46 2.23 1.13 3.08 2.01.85.86 1.51 1.92 1.97 3.17.46 1.24.69 2.64.69 4.2v1.64h-17.54v-3.89h11.04c-.01-.56-.15-1.05-.43-1.48-.27-.44-.65-.77-1.11-1.01-.46-.25-.99-.37-1.58-.37-.57 0-1.09.12-1.57.37-.48.24-.86.57-1.15 1-.28.42-.43.92-.45 1.49v4.2c0 .63.14 1.19.4 1.68.26.5.64.88 1.14 1.17.49.28 1.09.42 1.79.42.48 0 .93-.07 1.33-.21.41-.13.75-.33 1.04-.58.29-.27.51-.58.64-.95h6.45c-.22 1.36-.75 2.55-1.58 3.55-.82 1-1.92 1.78-3.28 2.33-1.36.55-2.94.82-4.76.82Zm24.21-20v5.12H180.1v-5.12h12.94Zm-10.43-4.7h7.05V28.8c0 .28.05.51.14.7.1.17.24.31.44.4.19.09.44.13.75.13.21 0 .46-.02.74-.07.29-.06.51-.1.64-.13l1.02 4.96c-.31.09-.76.21-1.35.34-.58.14-1.27.23-2.07.27-1.62.09-2.98-.08-4.08-.5s-1.93-1.09-2.48-2c-.55-.92-.82-2.06-.8-3.43V10.78Zm13.31 24.34V15.48h7.05v19.64h-7.05Zm3.52-21.68c-.95 0-1.77-.32-2.45-.95-.68-.63-1.02-1.39-1.02-2.27 0-.89.34-1.65 1.02-2.28.68-.63 1.5-.94 2.45-.94.97 0 1.79.31 2.46.94.68.63 1.02 1.39 1.02 2.28 0 .88-.34 1.64-1.02 2.27-.67.63-1.49.95-2.46.95Zm16.59 22.04c-2.13 0-3.96-.42-5.47-1.27a8.647 8.647 0 0 1-3.49-3.55c-.81-1.53-1.22-3.3-1.22-5.31s.41-3.77 1.22-5.29a8.53 8.53 0 0 1 3.49-3.55c1.51-.86 3.34-1.28 5.47-1.28 1.93 0 3.59.35 5 1.05 1.41.69 2.51 1.67 3.28 2.94.78 1.26 1.17 2.74 1.18 4.45h-6.55c-.09-1.04-.39-1.82-.89-2.36-.5-.54-1.13-.81-1.92-.81-.61 0-1.15.17-1.61.53-.46.35-.82.88-1.07 1.6-.26.71-.39 1.6-.39 2.67 0 1.08.13 1.97.39 2.69.25.7.61 1.24 1.07 1.59.46.35 1 .53 1.61.53.52 0 .98-.12 1.38-.36.4-.25.73-.6.97-1.07.26-.48.41-1.06.46-1.74h6.55c-.03 1.73-.42 3.24-1.19 4.52-.77 1.28-1.85 2.27-3.26 2.97-1.4.7-3.07 1.05-5.01 1.05Zm33.55-18.36c-.06-.85-.38-1.52-.95-1.99-.57-.48-1.42-.72-2.57-.72-.74 0-1.34.09-1.81.27-.46.17-.8.4-1.02.7-.22.3-.34.64-.34 1.02-.02.32.03.61.16.86.14.25.35.47.64.68.29.19.66.37 1.11.54.45.16.99.3 1.61.43l2.15.46c1.45.31 2.69.71 3.72 1.21 1.03.51 1.88 1.1 2.53 1.78.66.67 1.14 1.43 1.45 2.28.31.84.47 1.76.48 2.76-.01 1.72-.44 3.18-1.29 4.37-.85 1.19-2.07 2.1-3.65 2.72-1.58.63-3.48.94-5.69.94-2.28 0-4.26-.34-5.96-1.01-1.69-.68-3-1.71-3.94-3.11-.93-1.41-1.4-3.2-1.4-5.39h6.75c.04.8.24 1.47.6 2.02.35.54.86.95 1.51 1.24.65.28 1.43.42 2.33.42.76 0 1.4-.1 1.91-.28.51-.19.9-.45 1.16-.78.27-.34.4-.72.41-1.14-.01-.4-.14-.75-.39-1.05-.25-.31-.66-.58-1.23-.82-.57-.25-1.34-.48-2.32-.69l-2.6-.56c-2.32-.5-4.15-1.34-5.49-2.52-1.33-1.18-1.99-2.8-1.98-4.84-.01-1.67.44-3.12 1.33-4.36.9-1.26 2.15-2.23 3.75-2.93 1.6-.7 3.43-1.05 5.51-1.05 2.11 0 3.94.35 5.48 1.06 1.54.71 2.73 1.71 3.57 2.99.84 1.28 1.27 2.78 1.28 4.49h-6.81Zm9.97 25.36v-27h7v3.43h.16c.25-.66.63-1.27 1.12-1.83.5-.56 1.11-1.01 1.84-1.34.74-.34 1.59-.51 2.56-.51 1.3 0 2.53.34 3.7 1.03 1.17.69 2.13 1.78 2.86 3.26.74 1.49 1.11 3.41 1.11 5.78 0 2.27-.35 4.15-1.06 5.64-.7 1.49-1.64 2.6-2.81 3.34-1.17.73-2.45 1.1-3.85 1.1-.92 0-1.74-.15-2.47-.45-.71-.31-1.33-.72-1.84-1.24a5.8 5.8 0 0 1-1.16-1.79h-.1v10.58h-7.06Zm6.9-17.18c0 .96.13 1.78.37 2.48.26.69.62 1.23 1.08 1.61.47.38 1.02.57 1.67.57.65 0 1.2-.19 1.65-.55.46-.38.81-.91 1.05-1.6.25-.7.37-1.54.37-2.51 0-.97-.12-1.8-.37-2.49-.24-.7-.59-1.23-1.05-1.6-.45-.37-1-.56-1.65-.56-.65 0-1.2.19-1.67.56-.46.37-.82.9-1.08 1.6-.24.69-.37 1.52-.37 2.49Zm21.88 10.13c-1.25 0-2.36-.21-3.32-.62-.96-.41-1.71-1.04-2.25-1.89-.55-.84-.82-1.92-.82-3.22 0-1.07.18-1.99.55-2.75.36-.77.88-1.39 1.53-1.88.66-.48 1.42-.85 2.29-1.11.88-.26 1.82-.42 2.84-.5 1.1-.08 1.98-.19 2.64-.31.68-.12 1.16-.3 1.46-.52.3-.23.45-.53.45-.91v-.05c0-.51-.2-.9-.59-1.17-.39-.28-.89-.41-1.51-.41-.67 0-1.22.15-1.65.44-.41.29-.67.74-.75 1.35h-6.5c.09-1.2.47-2.3 1.14-3.3.68-1.02 1.68-1.83 2.98-2.43 1.3-.62 2.93-.92 4.88-.92 1.41 0 2.67.16 3.79.5 1.11.32 2.07.78 2.85 1.36.78.58 1.38 1.27 1.79 2.05.42.78.63 1.62.63 2.53v13.45h-6.6v-2.76h-.15c-.4.73-.87 1.32-1.44 1.78-.55.45-1.19.78-1.9.98-.71.2-1.49.31-2.34.31Zm2.3-4.45c.54 0 1.04-.11 1.51-.33.48-.23.86-.55 1.16-.96.3-.42.45-.93.45-1.52v-1.64c-.19.08-.39.15-.6.22-.21.06-.43.13-.67.19-.23.06-.47.11-.74.16-.25.06-.52.1-.8.15-.55.08-1 .22-1.34.42-.35.18-.6.42-.77.7-.16.27-.24.58-.24.92 0 .55.19.96.57 1.25.38.29.87.44 1.47.44Zm22.96 4.5c-2.13 0-3.96-.42-5.47-1.27a8.647 8.647 0 0 1-3.49-3.55c-.81-1.53-1.22-3.3-1.22-5.31s.41-3.77 1.22-5.29a8.53 8.53 0 0 1 3.49-3.55c1.51-.86 3.34-1.28 5.47-1.28 1.92 0 3.59.35 5 1.05 1.41.69 2.51 1.67 3.28 2.94.78 1.26 1.17 2.74 1.18 4.45h-6.55c-.09-1.04-.39-1.82-.89-2.36-.5-.54-1.14-.81-1.92-.81-.61 0-1.15.17-1.61.53-.46.35-.82.88-1.07 1.6-.26.71-.39 1.6-.39 2.67 0 1.08.13 1.97.39 2.69.25.7.61 1.24 1.07 1.59.46.35 1 .53 1.61.53.52 0 .98-.12 1.38-.36.4-.25.72-.6.97-1.07.26-.48.41-1.06.46-1.74h6.55c-.03 1.73-.42 3.24-1.19 4.52-.77 1.28-1.85 2.27-3.26 2.97-1.4.7-3.07 1.05-5.01 1.05Zm21.78 0c-2.1 0-3.9-.4-5.42-1.2a8.422 8.422 0 0 1-3.49-3.48c-.81-1.52-1.22-3.33-1.22-5.45 0-2.03.41-3.8 1.23-5.32a8.821 8.821 0 0 1 3.47-3.54c1.49-.84 3.25-1.26 5.28-1.26 1.48 0 2.82.23 4.02.69 1.2.46 2.23 1.13 3.08 2.01.86.86 1.51 1.92 1.97 3.17.46 1.24.69 2.64.69 4.2v1.64h-17.54v-3.89h11.05a2.74 2.74 0 0 0-.44-1.48 2.71 2.71 0 0 0-1.11-1.01c-.46-.25-.98-.37-1.57-.37-.57 0-1.1.12-1.57.37-.48.24-.86.57-1.15 1-.29.42-.43.92-.45 1.49v4.2c0 .63.13 1.19.39 1.68.27.5.65.88 1.14 1.17.5.28 1.09.42 1.79.42.49 0 .93-.07 1.33-.21.41-.13.76-.33 1.05-.58.29-.27.5-.58.64-.95h6.44c-.22 1.36-.74 2.55-1.57 3.55-.83 1-1.92 1.78-3.29 2.33-1.35.55-2.94.82-4.75.82ZM23.81 20.93V9h10.82c.96 0 1.76.32 2.4.98.65.65.97 1.47.97 2.45v8.5H23.81ZM3.36 35c-.96 0-1.76-.33-2.4-.99-.65-.65-.97-1.47-.96-2.45V12.43c0-.98.32-1.8.96-2.45.64-.66 1.44-.99 2.4-.98h18.36v26H3.36Zm20.45 0V23.06H38v8.5c0 .98-.33 1.8-.97 2.45-.64.66-1.44.99-2.4.99H23.81Z"/></g></svg></svg>